<svg width="23" height="24" viewBox="0 0 23 24" fill="none" xmlns="http://www.w3.org/2000/svg">
<path d="M11.5051 6.16025C8.23996 6.16025 5.60626 8.76533 5.60626 11.995C5.60626 15.2247 8.23996 17.8298 11.5051 17.8298C14.7703 17.8298 17.404 15.2247 17.404 11.995C17.404 8.76533 14.7703 6.16025 11.5051 6.16025ZM11.5051 15.7884C9.3951 15.7884 7.67009 14.0872 7.67009 11.995C7.67009 9.90283 9.38996 8.20166 11.5051 8.20166C13.6203 8.20166 15.3402 9.90283 15.3402 11.995C15.3402 14.0872 13.6152 15.7884 11.5051 15.7884ZM19.0212 5.92158C19.0212 6.67822 18.4051 7.28252 17.6453 7.28252C16.8804 7.28252 16.2694 6.67314 16.2694 5.92158C16.2694 5.17002 16.8855 4.56064 17.6453 4.56064C18.4051 4.56064 19.0212 5.17002 19.0212 5.92158ZM22.9281 7.30283C22.8409 5.47979 22.4199 3.86494 21.0697 2.53447C19.7246 1.204 18.092 0.787598 16.2489 0.696191C14.3493 0.589551 8.65581 0.589551 6.75626 0.696191C4.91831 0.78252 3.28572 1.19893 1.9355 2.52939C0.585273 3.85986 0.169425 5.47471 0.0770142 7.29775C-0.0307983 9.17666 -0.0307983 14.8083 0.0770142 16.6872C0.164291 18.5103 0.585273 20.1251 1.9355 21.4556C3.28572 22.786 4.91318 23.2024 6.75626 23.2938C8.65581 23.4005 14.3493 23.4005 16.2489 23.2938C18.092 23.2075 19.7246 22.7911 21.0697 21.4556C22.4147 20.1251 22.8357 18.5103 22.9281 16.6872C23.0359 14.8083 23.0359 9.18174 22.9281 7.30283ZM20.4741 18.7032C20.0737 19.6985 19.2984 20.4653 18.2871 20.8665C16.7726 21.4606 13.1788 21.3235 11.5051 21.3235C9.83148 21.3235 6.23259 21.4556 4.72322 20.8665C3.71697 20.4704 2.94175 19.7036 2.53617 18.7032C1.9355 17.2052 2.07411 13.6505 2.07411 11.995C2.07411 10.3396 1.94063 6.77979 2.53617 5.28682C2.93661 4.2915 3.71184 3.52471 4.72322 3.12354C6.23773 2.52939 9.83148 2.6665 11.5051 2.6665C13.1788 2.6665 16.7777 2.53447 18.2871 3.12354C19.2933 3.51963 20.0685 4.28643 20.4741 5.28682C21.0748 6.78486 20.9362 10.3396 20.9362 11.995C20.9362 13.6505 21.0748 17.2103 20.4741 18.7032Z" fill="#7C7C7C"/>
</svg>
